<?xml version="1.0" encoding="utf-8"?>

<!DOCTYPE svg PUBLIC "-//W3C//DTD SVG 1.0//EN" "http://www.w3.org/TR/2001/REC-SVG-20010904/DTD/svg10.dtd">
<!-- Uploaded to: SVG Repo, www.svgrepo.com, Generator: SVG Repo Mixer Tools -->
<svg version="1.0" id="Layer_1" xmlns="http://www.w3.org/2000/svg" xmlns:xlink="http://www.w3.org/1999/xlink" 
	 width="800px" height="800px" viewBox="0 0 64 64" enable-background="new 0 0 64 64" xml:space="preserve">
<g>
	<path fill="#B4CCB9" d="M56,28c0,11.047-8.953,20-20,20H16V28c0-11.047,8.953-20,20-20h20V28z"/>
	<g>
		<path fill="#394240" d="M36,0C20.535,0,8,12.535,8,28v22.344l-6.828,6.828c-1.562,1.562-1.562,4.094,0,5.656
			C1.953,63.609,2.977,64,4,64s2.047-0.391,2.828-1.172L13.656,56H36c15.465,0,28-12.535,28-28V0H36z M56,28
			c0,11.047-8.953,20-20,20H16V28c0-11.047,8.953-20,20-20h20V28z"/>
		<path fill="#394240" d="M32,20c0-2.211-1.789-4-4-4s-4,1.789-4,4v14.344l-2.828,2.828c-1.562,1.562-1.562,4.094,0,5.656
			C21.953,43.609,22.977,44,24,44s2.047-0.391,2.828-1.172l2.824-2.824H44c2.211,0,4-1.789,4-4s-1.789-4-4-4h-6.348l13.176-13.176
			c1.562-1.562,1.562-4.094,0-5.656s-4.094-1.562-5.656,0L32,26.344V20z"/>
	</g>
</g>
</svg>