<?xml version="1.0" encoding="UTF-8" standalone="no"?><!DOCTYPE svg PUBLIC "-//W3C//DTD SVG 1.1//EN" "http://www.w3.org/Graphics/SVG/1.1/DTD/svg11.dtd"><svg width="100%" height="100%" viewBox="0 0 2134 2134" version="1.1" xmlns="http://www.w3.org/2000/svg" xmlns:xlink="http://www.w3.org/1999/xlink" xml:space="preserve" xmlns:serif="http://www.serif.com/" style="fill-rule:evenodd;clip-rule:evenodd;stroke-linejoin:round;stroke-miterlimit:2;"><rect x="66.667" y="66.667" width="2000" height="2000" style="fill:url(#_Radial1);"/><path d="M1761.194,950.911c0,319.688 -259.09,578.779 -578.779,578.779l-578.778,0l0,-578.779c0,-319.688 259.09,-578.778 578.778,-578.778l578.779,0l0,578.778Z" style="fill:#c1d5c5;fill-rule:nonzero;"/><clipPath id="_clip2"><path d="M1182.415,140.621c-447.54,0 -810.29,362.749 -810.29,810.29l0,646.611l-197.595,197.595c-45.203,45.203 -45.203,118.476 0,163.679c22.601,22.601 52.235,33.916 81.839,33.916c29.605,0 59.238,-11.315 81.839,-33.916l197.595,-197.595l646.611,0c447.54,0 810.29,-362.75 810.29,-810.29l0,-810.29l-810.29,0Zm578.779,810.29c0,319.688 -259.09,578.779 -578.779,578.779l-578.778,0l0,-578.779c0,-319.688 259.09,-578.778 578.778,-578.778l578.779,0l0,578.778Z" clip-rule="nonzero"/></clipPath><g clip-path="url(#_clip2)"><rect x="0" y="-0" width="2133.333" height="2133.333" style="fill:url(#_Linear3);"/></g><clipPath id="_clip4"><path d="M1066.66,719.4c0,-63.984 -51.772,-115.756 -115.756,-115.756c-63.984,0 -115.756,51.772 -115.756,115.756l-0,415.1l-81.839,81.839c-45.202,45.203 -45.202,118.476 0,163.679c22.601,22.601 52.235,33.916 81.839,33.916c29.605,0 59.238,-11.315 81.84,-33.916l81.723,-81.724l415.216,0c63.984,-0 115.755,-51.772 115.755,-115.756c0,-63.984 -51.772,-115.755 -115.755,-115.755l-183.705,0l381.3,-381.299c45.203,-45.203 45.203,-118.476 0,-163.679c-45.203,-45.203 -118.476,-45.203 -163.679,-0l-381.183,381.183l0,-183.588Z" clip-rule="nonzero"/></clipPath><g clip-path="url(#_clip4)"><rect x="-0" y="0" width="2133.333" height="2133.333" style="fill:url(#_Linear5);"/></g><defs><radialGradient id="_Radial1" cx="0" cy="0" r="1" gradientUnits="userSpaceOnUse" gradientTransform="matrix(1414.21375,0,0,1414.21375,1066.666667,1066.666667)"><stop offset="0" style="stop-color:#f26077;stop-opacity:1"/><stop offset="1" style="stop-color:#9662d0;stop-opacity:1"/></radialGradient><linearGradient id="_Linear3" x1="0" y1="0" x2="1" y2="0" gradientUnits="userSpaceOnUse" gradientTransform="matrix(2071.461494,-1560.958158,1560.958158,2071.461494,30.93592,1847.145746)"><stop offset="0" style="stop-color:#68bc36;stop-opacity:1"/><stop offset="1" style="stop-color:#3b8eed;stop-opacity:1"/></linearGradient><linearGradient id="_Linear5" x1="0" y1="0" x2="1" y2="0" gradientUnits="userSpaceOnUse" gradientTransform="matrix(-1065.754779,718.860647,-718.860647,-1065.754779,1715.292389,591.48801)"><stop offset="0" style="stop-color:#01bfc0;stop-opacity:1"/><stop offset="1" style="stop-color:#ff914d;stop-opacity:1"/></linearGradient></defs></svg>