<?xml version="1.0" encoding="utf-8" standalone="yes"?> <svg width="1000" height="1000" viewBox="-1 -1 55 55" xmlns="http://www.w3.org/2000/svg" xmlns:xlink="http://www.w3.org/1999/xlink" shape-rendering="crispEdges" id="qr code"><rect id="qr background" fill-opacity="1" fill="rgb(243, 251, 255)" x="-1" y="-1" width="55" height="55"></rect><path fill-opacity="1" fill="rgb(0, 0, 0)" id="qr dark pixels" fill-rule="evenodd" d="M 8 0 L 11 0 L 11 1 L 8 1 z M 12 0 L 13 0 L 13 1 L 12 1 z M 16 0 L 17 0 L 17 1 L 18 1 L 18 2 L 16 2 z M 18 0 L 19 0 L 19 1 L 18 1 z M 22 0 L 23 0 L 23 1 L 22 1 z M 24 0 L 31 0 L 31 1 L 30 1 L 30 2 L 31 2 L 31 1 L 33 1 L 33 3 L 30 3 L 30 4 L 29 4 L 29 3 L 28 3 L 28 2 L 29 2 L 29 1 L 28 1 L 28 2 L 26 2 L 26 1 L 24 1 z M 35 0 L 38 0 L 38 1 L 37 1 L 37 2 L 38 2 L 38 3 L 37 3 L 37 4 L 35 4 L 35 3 L 36 3 L 36 2 L 34 2 L 34 1 L 35 1 z M 40 0 L 41 0 L 41 1 L 40 1 z M 42 0 L 43 0 L 43 1 L 44 1 L 44 3 L 43 3 L 43 2 L 42 2 z M 11 1 L 12 1 L 12 2 L 13 2 L 13 3 L 11 3 z M 13 1 L 14 1 L 14 2 L 13 2 z M 20 1 L 21 1 L 21 2 L 20 2 z M 23 1 L 24 1 L 24 4 L 23 4 L 23 3 L 22 3 L 22 2 L 23 2 z M 8 2 L 9 2 L 9 4 L 10 4 L 10 5 L 11 5 L 11 8 L 10 8 L 10 9 L 8 9 L 8 8 L 9 8 L 9 7 L 10 7 L 10 6 L 9 6 L 9 5 L 8 5 z M 15 2 L 16 2 L 16 5 L 17 5 L 17 3 L 19 3 L 19 4 L 18 4 L 18 5 L 19 5 L 19 7 L 20 7 L 20 6 L 21 6 L 21 8 L 20 8 L 20 10 L 18 10 L 18 9 L 16 9 L 16 11 L 14 11 L 14 10 L 15 10 L 15 8 L 14 8 L 14 10 L 13 10 L 13 11 L 12 11 L 12 12 L 11 12 L 11 8 L 12 8 L 12 9 L 13 9 L 13 8 L 12 8 L 12 6 L 13 6 L 13 7 L 14 7 L 14 6 L 15 6 L 15 7 L 16 7 L 16 8 L 17 8 L 17 7 L 18 7 L 18 6 L 17 6 L 17 7 L 16 7 L 16 6 L 15 6 L 15 5 L 14 5 L 14 4 L 15 4 z M 25 2 L 26 2 L 26 3 L 27 3 L 27 4 L 25 4 z M 39 2 L 41 2 L 41 3 L 39 3 z M 13 3 L 14 3 L 14 4 L 13 4 z M 20 3 L 21 3 L 21 4 L 23 4 L 23 5 L 20 5 z M 38 3 L 39 3 L 39 4 L 40 4 L 40 5 L 41 5 L 41 7 L 40 7 L 40 6 L 39 6 L 39 5 L 38 5 L 38 6 L 37 6 L 37 7 L 38 7 L 38 6 L 39 6 L 39 7 L 40 7 L 40 8 L 41 8 L 41 9 L 40 9 L 40 10 L 39 10 L 39 8 L 36 8 L 36 9 L 33 9 L 33 8 L 35 8 L 35 7 L 36 7 L 36 6 L 35 6 L 35 5 L 37 5 L 37 4 L 38 4 z M 41 3 L 43 3 L 43 8 L 44 8 L 44 9 L 43 9 L 43 10 L 42 10 L 42 11 L 41 11 L 41 9 L 42 9 L 42 8 L 41 8 L 41 7 L 42 7 L 42 5 L 41 5 z M 44 3 L 45 3 L 45 4 L 44 4 z M 12 4 L 13 4 L 13 5 L 12 5 z M 31 4 L 34 4 L 34 6 L 33 6 L 33 8 L 30 8 L 30 5 L 31 5 L 31 7 L 32 7 L 32 5 L 31 5 z M 13 5 L 14 5 L 14 6 L 13 6 z M 8 6 L 9 6 L 9 7 L 8 7 z M 22 6 L 23 6 L 23 7 L 22 7 z M 34 6 L 35 6 L 35 7 L 34 7 z M 44 6 L 45 6 L 45 7 L 44 7 z M 0 8 L 4 8 L 4 9 L 3 9 L 3 13 L 2 13 L 2 14 L 1 14 L 1 13 L 0 13 L 0 12 L 1 12 L 1 11 L 0 11 z M 6 8 L 7 8 L 7 9 L 6 9 z M 22 8 L 23 8 L 23 9 L 24 9 L 24 10 L 22 10 z M 45 8 L 46 8 L 46 9 L 45 9 z M 48 8 L 51 8 L 51 9 L 52 9 L 52 11 L 53 11 L 53 13 L 51 13 L 51 11 L 49 11 L 49 10 L 50 10 L 50 9 L 49 9 L 49 10 L 47 10 L 47 9 L 48 9 z M 52 8 L 53 8 L 53 9 L 52 9 z M 5 9 L 6 9 L 6 10 L 5 10 z M 25 9 L 26 9 L 26 10 L 27 10 L 27 9 L 28 9 L 28 11 L 29 11 L 29 12 L 27 12 L 27 11 L 24 11 L 24 10 L 25 10 z M 29 9 L 32 9 L 32 10 L 30 10 L 30 11 L 29 11 z M 36 9 L 38 9 L 38 10 L 37 10 L 37 13 L 35 13 L 35 12 L 36 12 z M 4 10 L 5 10 L 5 11 L 4 11 z M 6 10 L 10 10 L 10 12 L 9 12 L 9 11 L 6 11 z M 21 10 L 22 10 L 22 11 L 23 11 L 23 12 L 21 12 z M 34 10 L 35 10 L 35 12 L 34 12 L 34 15 L 32 15 L 32 14 L 33 14 L 33 12 L 32 12 L 32 14 L 31 14 L 31 11 L 34 11 z M 44 10 L 46 10 L 46 12 L 45 12 L 45 11 L 44 11 z M 16 11 L 17 11 L 17 12 L 16 12 z M 19 11 L 20 11 L 20 12 L 19 12 z M 38 11 L 41 11 L 41 12 L 38 12 z M 43 11 L 44 11 L 44 12 L 43 12 z M 48 11 L 49 11 L 49 13 L 47 13 L 47 12 L 48 12 z M 4 12 L 7 12 L 7 13 L 4 13 z M 13 12 L 14 12 L 14 13 L 13 13 z M 15 12 L 16 12 L 16 14 L 15 14 L 15 15 L 19 15 L 19 16 L 18 16 L 18 18 L 20 18 L 20 19 L 17 19 L 17 20 L 18 20 L 18 22 L 17 22 L 17 21 L 16 21 L 16 20 L 13 20 L 13 19 L 14 19 L 14 18 L 15 18 L 15 17 L 16 17 L 16 18 L 17 18 L 17 16 L 14 16 L 14 13 L 15 13 z M 17 12 L 19 12 L 19 13 L 20 13 L 20 12 L 21 12 L 21 13 L 23 13 L 23 12 L 25 12 L 25 14 L 28 14 L 28 13 L 29 13 L 29 15 L 25 15 L 25 18 L 24 18 L 24 20 L 25 20 L 25 22 L 26 22 L 26 24 L 25 24 L 25 23 L 24 23 L 24 25 L 23 25 L 23 22 L 24 22 L 24 21 L 23 21 L 23 22 L 22 22 L 22 25 L 21 25 L 21 24 L 20 24 L 20 23 L 21 23 L 21 21 L 20 21 L 20 22 L 19 22 L 19 20 L 20 20 L 20 19 L 21 19 L 21 20 L 23 20 L 23 17 L 24 17 L 24 16 L 23 16 L 23 15 L 24 15 L 24 14 L 21 14 L 21 15 L 20 15 L 20 14 L 17 14 z M 26 12 L 27 12 L 27 13 L 26 13 z M 29 12 L 30 12 L 30 13 L 29 13 z M 42 12 L 43 12 L 43 13 L 42 13 z M 44 12 L 45 12 L 45 13 L 46 13 L 46 14 L 43 14 L 43 13 L 44 13 z M 7 13 L 9 13 L 9 14 L 10 14 L 10 16 L 9 16 L 9 17 L 10 17 L 10 16 L 12 16 L 12 15 L 13 15 L 13 16 L 14 16 L 14 18 L 13 18 L 13 19 L 10 19 L 10 20 L 9 20 L 9 19 L 8 19 L 8 15 L 6 15 L 6 16 L 7 16 L 7 17 L 5 17 L 5 14 L 7 14 zM 11 17 L 12 17 L 12 18 L 11 18 z M 10 13 L 11 13 L 11 14 L 10 14 z M 12 13 L 13 13 L 13 14 L 12 14 z M 38 13 L 39 13 L 39 15 L 38 15 z M 40 13 L 41 13 L 41 14 L 40 14 z M 49 13 L 50 13 L 50 14 L 53 14 L 53 15 L 49 15 z M 0 14 L 1 14 L 1 17 L 3 17 L 3 18 L 0 18 z M 2 14 L 4 14 L 4 16 L 3 16 L 3 15 L 2 15 z M 30 14 L 31 14 L 31 16 L 29 16 L 29 15 L 30 15 z M 42 14 L 43 14 L 43 15 L 42 15 z M 34 15 L 35 15 L 35 16 L 34 16 z M 39 15 L 42 15 L 42 16 L 43 16 L 43 15 L 46 15 L 46 16 L 44 16 L 44 18 L 43 18 L 43 17 L 41 17 L 41 16 L 39 16 z M 48 15 L 49 15 L 49 16 L 48 16 z M 19 16 L 21 16 L 21 17 L 19 17 z M 27 16 L 28 16 L 28 17 L 27 17 z M 31 16 L 34 16 L 34 17 L 32 17 L 32 19 L 31 19 z M 37 16 L 39 16 L 39 17 L 37 17 z M 46 16 L 47 16 L 47 18 L 45 18 L 45 17 L 46 17 z M 49 16 L 50 16 L 50 17 L 49 17 z M 51 16 L 53 16 L 53 18 L 52 18 L 52 17 L 51 17 z M 4 17 L 5 17 L 5 18 L 4 18 z M 21 17 L 22 17 L 22 18 L 21 18 z M 26 17 L 27 17 L 27 20 L 30 20 L 30 19 L 31 19 L 31 21 L 33 21 L 33 23 L 32 23 L 32 22 L 31 22 L 31 24 L 30 24 L 30 23 L 29 23 L 29 22 L 28 22 L 28 21 L 27 21 L 27 22 L 26 22 L 26 20 L 25 20 L 25 19 L 26 19 z M 28 17 L 29 17 L 29 18 L 28 18 z M 34 17 L 35 17 L 35 18 L 36 18 L 36 19 L 37 19 L 37 20 L 36 20 L 36 22 L 35 22 L 35 19 L 33 19 L 33 18 L 34 18 z M 40 17 L 41 17 L 41 18 L 40 18 z M 48 17 L 49 17 L 49 19 L 50 19 L 50 17 L 51 17 L 51 19 L 53 19 L 53 22 L 52 22 L 52 21 L 51 21 L 51 20 L 48 20 L 48 21 L 44 21 L 44 22 L 49 22 L 49 23 L 48 23 L 48 24 L 46 24 L 46 23 L 44 23 L 44 24 L 42 24 L 42 23 L 40 23 L 40 24 L 38 24 L 38 23 L 39 23 L 39 22 L 41 22 L 41 21 L 40 21 L 40 20 L 43 20 L 43 19 L 44 19 L 44 20 L 46 20 L 46 19 L 47 19 L 47 18 L 48 18 z M 3 18 L 4 18 L 4 20 L 3 20 z M 6 18 L 7 18 L 7 19 L 6 19 z M 29 18 L 30 18 L 30 19 L 29 19 z M 38 18 L 39 18 L 39 19 L 38 19 z M 41 18 L 42 18 L 42 19 L 41 19 z M 44 18 L 45 18 L 45 19 L 44 19 z M 1 19 L 2 19 L 2 20 L 3 20 L 3 21 L 0 21 L 0 20 L 1 20 z M 5 19 L 6 19 L 6 20 L 9 20 L 9 21 L 8 21 L 8 22 L 7 22 L 7 21 L 5 21 L 5 23 L 4 23 L 4 25 L 3 25 L 3 21 L 4 21 L 4 20 L 5 20 z M 10 20 L 11 20 L 11 21 L 10 21 z M 12 20 L 13 20 L 13 22 L 11 22 L 11 21 L 12 21 z M 33 20 L 34 20 L 34 21 L 33 21 z M 37 20 L 39 20 L 39 21 L 38 21 L 38 22 L 37 22 z M 9 21 L 10 21 L 10 22 L 9 22 z M 15 21 L 16 21 L 16 22 L 15 22 z M 50 21 L 51 21 L 51 22 L 50 22 z M 0 22 L 1 22 L 1 23 L 0 23 z M 6 22 L 7 22 L 7 23 L 6 23 z M 8 22 L 9 22 L 9 23 L 8 23 z M 10 22 L 11 22 L 11 25 L 12 25 L 12 26 L 10 26 z M 14 22 L 15 22 L 15 23 L 14 23 z M 18 22 L 19 22 L 19 24 L 18 24 z M 27 22 L 28 22 L 28 23 L 27 23 z M 34 22 L 35 22 L 35 24 L 34 24 z M 36 22 L 37 22 L 37 25 L 35 25 L 35 24 L 36 24 z M 1 23 L 2 23 L 2 27 L 1 27 L 1 26 L 0 26 L 0 25 L 1 25 z M 12 23 L 13 23 L 13 24 L 12 24 z M 15 23 L 17 23 L 17 24 L 15 24 z M 28 23 L 29 23 L 29 24 L 28 24 z M 51 23 L 53 23 L 53 24 L 51 24 z M 17 24 L 18 24 L 18 26 L 17 26 z M 31 24 L 32 24 L 32 25 L 31 25 z M 33 24 L 34 24 L 34 25 L 33 25 z M 49 24 L 50 24 L 50 25 L 51 25 L 51 26 L 50 26 L 50 28 L 49 28 z M 13 25 L 15 25 L 15 26 L 17 26 L 17 27 L 16 27 L 16 28 L 17 28 L 17 33 L 19 33 L 19 31 L 18 31 L 18 29 L 19 29 L 19 30 L 20 30 L 20 31 L 21 31 L 21 32 L 20 32 L 20 34 L 18 34 L 18 36 L 19 36 L 19 37 L 20 37 L 20 36 L 22 36 L 22 37 L 21 37 L 21 38 L 19 38 L 19 39 L 15 39 L 15 38 L 14 38 L 14 40 L 13 40 L 13 38 L 12 38 L 12 36 L 11 36 L 11 35 L 12 35 L 12 33 L 13 33 L 13 36 L 14 36 L 14 37 L 15 37 L 15 36 L 14 36 L 14 35 L 16 35 L 16 36 L 17 36 L 17 35 L 16 35 L 16 32 L 15 32 L 15 31 L 13 31 L 13 32 L 11 32 L 11 28 L 12 28 L 12 26 L 13 26 L 13 29 L 12 29 L 12 30 L 14 30 L 14 28 L 15 28 L 15 27 L 14 27 L 14 26 L 13 26 zM 16 37 L 18 37 L 18 38 L 16 38 z M 19 25 L 21 25 L 21 26 L 23 26 L 23 27 L 20 27 L 20 26 L 19 26 z M 38 25 L 40 25 L 40 26 L 38 26 z M 43 25 L 44 25 L 44 27 L 43 27 z M 29 26 L 30 26 L 30 28 L 32 28 L 32 27 L 31 27 L 31 26 L 33 26 L 33 28 L 34 28 L 34 29 L 35 29 L 35 28 L 36 28 L 36 29 L 37 29 L 37 30 L 36 30 L 36 31 L 37 31 L 37 32 L 36 32 L 36 34 L 35 34 L 35 31 L 34 31 L 34 32 L 32 32 L 32 31 L 31 31 L 31 29 L 30 29 L 30 32 L 29 32 L 29 30 L 26 30 L 26 29 L 29 29 z M 36 26 L 38 26 L 38 27 L 36 27 z M 51 26 L 53 26 L 53 27 L 51 27 z M 2 27 L 3 27 L 3 28 L 2 28 z M 18 27 L 19 27 L 19 28 L 18 28 z M 38 27 L 42 27 L 42 28 L 40 28 L 40 30 L 39 30 L 39 29 L 38 29 z M 0 28 L 2 28 L 2 29 L 1 29 L 1 31 L 0 31 z M 3 28 L 4 28 L 4 29 L 5 29 L 5 30 L 3 30 z M 9 28 L 10 28 L 10 31 L 9 31 L 9 32 L 8 32 L 8 34 L 7 34 L 7 33 L 6 33 L 6 34 L 5 34 L 5 32 L 4 32 L 4 39 L 5 39 L 5 40 L 3 40 L 3 38 L 1 38 L 1 39 L 0 39 L 0 32 L 2 32 L 2 33 L 1 33 L 1 34 L 2 34 L 2 35 L 3 35 L 3 31 L 6 31 L 6 32 L 7 32 L 7 31 L 6 31 L 6 30 L 9 30 zM 1 36 L 2 36 L 2 37 L 1 37 z M 21 28 L 22 28 L 22 30 L 23 30 L 23 31 L 24 31 L 24 33 L 22 33 L 22 34 L 21 34 L 21 32 L 22 32 L 22 31 L 21 31 z M 43 28 L 44 28 L 44 29 L 43 29 z M 50 28 L 52 28 L 52 29 L 50 29 z M 23 29 L 24 29 L 24 30 L 23 30 z M 41 29 L 42 29 L 42 30 L 41 30 z M 45 29 L 46 29 L 46 30 L 45 30 z M 47 29 L 48 29 L 48 30 L 47 30 z M 52 29 L 53 29 L 53 30 L 52 30 z M 2 30 L 3 30 L 3 31 L 2 31 z M 24 30 L 26 30 L 26 31 L 24 31 z M 37 30 L 39 30 L 39 31 L 37 31 z M 40 30 L 41 30 L 41 31 L 42 31 L 42 33 L 43 33 L 43 34 L 44 34 L 44 35 L 38 35 L 38 34 L 41 34 L 41 33 L 38 33 L 38 34 L 37 34 L 37 32 L 40 32 z M 50 30 L 51 30 L 51 32 L 50 32 L 50 34 L 51 34 L 51 33 L 52 33 L 52 35 L 49 35 L 49 34 L 48 34 L 48 33 L 46 33 L 46 36 L 47 36 L 47 37 L 46 37 L 46 38 L 47 38 L 47 39 L 46 39 L 46 40 L 43 40 L 43 39 L 45 39 L 45 38 L 43 38 L 43 37 L 45 37 L 45 34 L 44 34 L 44 33 L 45 33 L 45 32 L 47 32 L 47 31 L 50 31 z M 26 31 L 28 31 L 28 32 L 26 32 z M 43 31 L 44 31 L 44 33 L 43 33 z M 10 32 L 11 32 L 11 35 L 8 35 L 8 34 L 9 34 L 9 33 L 10 33 z M 14 32 L 15 32 L 15 33 L 14 33 z M 25 32 L 26 32 L 26 33 L 25 33 z M 31 32 L 32 32 L 32 34 L 31 34 L 31 35 L 30 35 L 30 36 L 29 36 L 29 37 L 28 37 L 28 36 L 27 36 L 27 35 L 26 35 L 26 33 L 31 33 z M 52 32 L 53 32 L 53 33 L 52 33 z M 33 33 L 34 33 L 34 34 L 33 34 z M 6 34 L 7 34 L 7 35 L 6 35 z M 23 34 L 24 34 L 24 35 L 23 35 z M 34 34 L 35 34 L 35 36 L 34 36 z M 47 34 L 48 34 L 48 36 L 47 36 z M 31 35 L 33 35 L 33 36 L 31 36 z M 36 35 L 37 35 L 37 37 L 41 37 L 41 39 L 42 39 L 42 40 L 40 40 L 40 41 L 42 41 L 42 42 L 40 42 L 40 43 L 39 43 L 39 40 L 38 40 L 38 41 L 37 41 L 37 40 L 35 40 L 35 39 L 36 39 L 36 38 L 35 38 L 35 37 L 36 37 zM 37 38 L 38 38 L 38 39 L 37 39 z M 39 38 L 40 38 L 40 39 L 39 39 z M 5 36 L 7 36 L 7 37 L 6 37 L 6 38 L 5 38 z M 9 36 L 11 36 L 11 38 L 10 38 L 10 39 L 8 39 L 8 40 L 7 40 L 7 39 L 6 39 L 6 38 L 7 38 L 7 37 L 9 37 z M 30 36 L 31 36 L 31 37 L 30 37 z M 41 36 L 43 36 L 43 37 L 41 37 z M 48 36 L 50 36 L 50 37 L 48 37 z M 51 36 L 52 36 L 52 38 L 53 38 L 53 39 L 50 39 L 50 37 L 51 37 z M 22 37 L 23 37 L 23 39 L 21 39 L 21 38 L 22 38 z M 25 37 L 26 37 L 26 39 L 24 39 L 24 38 L 25 38 z M 31 37 L 34 37 L 34 38 L 33 38 L 33 39 L 34 39 L 34 40 L 33 40 L 33 41 L 35 41 L 35 42 L 34 42 L 34 43 L 35 43 L 35 45 L 34 45 L 34 44 L 33 44 L 33 42 L 31 42 L 31 39 L 30 39 L 30 38 L 31 38 z M 47 37 L 48 37 L 48 38 L 47 38 z M 28 38 L 29 38 L 29 39 L 28 39 z M 42 38 L 43 38 L 43 39 L 42 39 z M 1 39 L 2 39 L 2 41 L 5 41 L 5 42 L 7 42 L 7 43 L 3 43 L 3 42 L 2 42 L 2 43 L 3 43 L 3 44 L 1 44 L 1 43 L 0 43 L 0 41 L 1 41 z M 20 39 L 21 39 L 21 40 L 22 40 L 22 41 L 18 41 L 18 40 L 20 40 z M 23 39 L 24 39 L 24 42 L 22 42 L 22 41 L 23 41 z M 27 39 L 28 39 L 28 40 L 27 40 z M 47 39 L 50 39 L 50 40 L 47 40 z M 6 40 L 7 40 L 7 41 L 6 41 z M 8 40 L 9 40 L 9 43 L 10 43 L 10 44 L 11 44 L 11 45 L 10 45 L 10 48 L 9 48 L 9 46 L 8 46 L 8 45 L 9 45 L 9 44 L 8 44 L 8 45 L 6 45 L 6 44 L 7 44 L 7 43 L 8 43 L 8 42 L 7 42 L 7 41 L 8 41 z M 10 40 L 13 40 L 13 45 L 12 45 L 12 44 L 11 44 L 11 42 L 10 42 z M 14 40 L 16 40 L 16 41 L 14 41 z M 25 40 L 27 40 L 27 41 L 29 41 L 29 40 L 30 40 L 30 42 L 26 42 L 26 44 L 23 44 L 23 43 L 24 43 L 24 42 L 25 42 z M 50 40 L 51 40 L 51 41 L 50 41 z M 52 40 L 53 40 L 53 42 L 52 42 z M 16 41 L 17 41 L 17 42 L 16 42 z M 36 41 L 37 41 L 37 42 L 36 42 z M 43 41 L 44 41 L 44 42 L 43 42 z M 45 41 L 46 41 L 46 42 L 45 42 z M 47 41 L 48 41 L 48 42 L 49 42 L 49 43 L 47 43 z M 49 41 L 50 41 L 50 42 L 49 42 z M 14 42 L 15 42 L 15 44 L 14 44 z M 18 42 L 19 42 L 19 44 L 18 44 L 18 48 L 17 48 L 17 43 L 18 43 z M 20 42 L 22 42 L 22 43 L 20 43 z M 30 42 L 31 42 L 31 43 L 30 43 z M 37 42 L 38 42 L 38 43 L 39 43 L 39 44 L 38 44 L 38 48 L 37 48 L 37 49 L 38 49 L 38 48 L 39 48 L 39 49 L 41 49 L 41 48 L 42 48 L 42 47 L 41 47 L 41 48 L 40 48 L 40 47 L 39 47 L 39 44 L 40 44 L 40 43 L 44 43 L 44 42 L 45 42 L 45 44 L 44 44 L 44 45 L 43 45 L 43 44 L 42 44 L 42 45 L 43 45 L 43 46 L 44 46 L 44 47 L 43 47 L 43 48 L 44 48 L 44 49 L 42 49 L 42 50 L 43 50 L 43 51 L 42 51 L 42 53 L 41 53 L 41 52 L 39 52 L 39 51 L 41 51 L 41 50 L 38 50 L 38 51 L 37 51 L 37 50 L 36 50 L 36 48 L 35 48 L 35 47 L 34 47 L 34 46 L 35 46 L 35 45 L 36 45 L 36 47 L 37 47 L 37 44 L 36 44 L 36 43 L 37 43 z M 50 42 L 51 42 L 51 44 L 50 44 L 50 45 L 49 45 L 49 43 L 50 43 z M 27 43 L 28 43 L 28 44 L 27 44 z M 29 43 L 30 43 L 30 45 L 32 45 L 32 47 L 30 47 L 30 48 L 29 48 z M 46 43 L 47 43 L 47 44 L 46 44 z M 3 44 L 4 44 L 4 45 L 3 45 z M 19 44 L 23 44 L 23 45 L 20 45 L 20 48 L 21 48 L 21 50 L 20 50 L 20 49 L 18 49 L 18 48 L 19 48 z M 51 44 L 53 44 L 53 45 L 51 45 z M 11 45 L 12 45 L 12 47 L 11 47 z M 23 45 L 24 45 L 24 46 L 23 46 z M 14 46 L 16 46 L 16 49 L 17 49 L 17 50 L 15 50 L 15 49 L 14 49 L 14 50 L 13 50 L 13 49 L 11 49 L 11 48 L 12 48 L 12 47 L 14 47 L 14 48 L 15 48 L 15 47 L 14 47 z M 21 46 L 23 46 L 23 47 L 21 47 z M 49 46 L 52 46 L 52 47 L 49 47 z M 32 47 L 34 47 L 34 48 L 32 48 z M 52 47 L 53 47 L 53 48 L 52 48 z M 30 48 L 32 48 L 32 49 L 34 49 L 34 50 L 32 50 L 32 51 L 31 51 L 31 52 L 32 52 L 32 51 L 34 51 L 34 53 L 30 53 L 30 50 L 31 50 L 31 49 L 30 49 z M 49 48 L 50 48 L 50 50 L 51 50 L 51 49 L 52 49 L 52 53 L 50 53 L 50 52 L 51 52 L 51 51 L 50 51 L 50 52 L 49 52 z M 8 49 L 9 49 L 9 50 L 10 50 L 10 49 L 11 49 L 11 52 L 9 52 L 9 53 L 8 53 z M 26 49 L 27 49 L 27 51 L 26 51 z M 29 49 L 30 49 L 30 50 L 29 50 z M 45 49 L 48 49 L 48 51 L 47 51 L 47 50 L 46 50 L 46 51 L 45 51 z M 14 50 L 15 50 L 15 51 L 14 51 z M 17 50 L 18 50 L 18 51 L 17 51 z M 19 50 L 20 50 L 20 52 L 18 52 L 18 51 L 19 51 z M 22 50 L 24 50 L 24 52 L 22 52 z M 28 50 L 29 50 L 29 52 L 28 52 z M 35 50 L 36 50 L 36 52 L 35 52 z M 13 51 L 14 51 L 14 53 L 13 53 z M 16 51 L 17 51 L 17 53 L 16 53 z M 43 51 L 44 51 L 44 52 L 45 52 L 45 53 L 43 53 z M 21 52 L 22 52 L 22 53 L 21 53 z M 25 52 L 28 52 L 28 53 L 25 53 z M 38 52 L 39 52 L 39 53 L 38 53 z M 47 52 L 48 52 L 48 53 L 47 53 z"></path><path id="qr squares" d="M0,0h7h0v0v7v0h0h-7h0v0v-7v0h0zM1,1h5h0v0v5v0h0h-5h0v0v-5v0h0zM2,2h3h0v0v3v0h0h-3h0v0v-3v0h0z M46,0h7h0v0v7v0h0h-7h0v0v-7v0h0zM47,1h5h0v0v5v0h0h-5h0v0v-5v0h0zM48,2h3h0v0v3v0h0h-3h0v0v-3v0h0z M0,46h7h0v0v7v0h0h-7h0v0v-7v0h0zM1,47h5h0v0v5v0h0h-5h0v0v-5v0h0zM2,48h3h0v0v3v0h0h-3h0v0v-3v0h0zM4,24h5h0v0v5v0h0h-5h0v0v-5v0h0zM5,25h3h0v0v3v0h0h-3h0v0v-3v0h0zM6,26h1h0v0v1v0h0h-1h0v0v-1v0h0z M24,4h5h0v0v5v0h0h-5h0v0v-5v0h0zM25,5h3h0v0v3v0h0h-3h0v0v-3v0h0zM26,6h1h0v0v1v0h0h-1h0v0v-1v0h0z M24,24h5h0v0v5v0h0h-5h0v0v-5v0h0zM25,25h3h0v0v3v0h0h-3h0v0v-3v0h0zM26,26h1h0v0v1v0h0h-1h0v0v-1v0h0z M24,44h5h0v0v5v0h0h-5h0v0v-5v0h0zM25,45h3h0v0v3v0h0h-3h0v0v-3v0h0zM26,46h1h0v0v1v0h0h-1h0v0v-1v0h0z M44,24h5h0v0v5v0h0h-5h0v0v-5v0h0zM45,25h3h0v0v3v0h0h-3h0v0v-3v0h0zM46,26h1h0v0v1v0h0h-1h0v0v-1v0h0z M44,44h5h0v0v5v0h0h-5h0v0v-5v0h0zM45,45h3h0v0v3v0h0h-3h0v0v-3v0h0zM46,46h1h0v0v1v0h0h-1h0v0v-1v0h0z" fill-rule="evenodd" fill-opacity="1" fill="rgb(0, 0, 0)"></path></svg>